<?xml version="1.0" encoding="utf-8"?>
<!-- Generator: Adobe Illustrator 27.5.0, SVG Export Plug-In . SVG Version: 6.00 Build 0)  -->
<svg version="1.1" id="Layer_1" xmlns="http://www.w3.org/2000/svg" xmlns:xlink="http://www.w3.org/1999/xlink" x="0px" y="0px"
	 viewBox="0 0 5000 2916" style="enable-background:new 0 0 5000 2916;" xml:space="preserve">
<g>
	<g>
		<defs>
			<rect id="SVGID_1_" width="5000" height="2916"/>
		</defs>
		<clipPath id="SVGID_00000131354731215340922790000001241716662826844057_">
			<use xlink:href="#SVGID_1_"  style="overflow:visible;"/>
		</clipPath>
		
			<linearGradient id="SVGID_00000030458658930901749940000003571783716963367613_" gradientUnits="userSpaceOnUse" x1="86.0023" y1="2741.6367" x2="4656.3643" y2="311.3593">
			<stop  offset="0" style="stop-color:#33CC66"/>
			<stop  offset="1" style="stop-color:#CCFF66"/>
		</linearGradient>
		
			<rect style="clip-path:url(#SVGID_00000131354731215340922790000001241716662826844057_);fill:url(#SVGID_00000030458658930901749940000003571783716963367613_);" width="5000" height="2916"/>
	</g>
	<path style="fill:#FFFFFF;" d="M2534.71,2916h-1.947c304.57-1375.131,150.824-1913.534-249.746-2005.272
		c-454.323-104.04-1226.281,365.828-2007.115,841.099C183.887,1807.831,91.754,1863.906,0,1919.134v-2.225
		c91.426-55.028,183.226-110.901,274.912-166.706c781.168-475.476,1553.45-945.545,2008.531-841.329
		C2685.082,1000.851,2839.451,1539.802,2534.71,2916 M2541.571,2916h-1.941c3.655-16.951,7.278-33.849,11.062-51.02h-0.006
		C2846.72,1501.811,2683.88,973.692,2274.931,884.824c-445.513-96.816-1183.259,327.13-1938.147,760.928
		C224.597,1710.217,112.04,1774.887,0,1838.112v-2.177c111.728-63.055,223.967-127.546,335.842-191.829
		c755.211-433.986,1493.274-858.113,1939.491-761.147c410.076,89.115,573.546,617.875,277.217,1982.422l-0.006,0.005
		C2548.792,2882.415,2545.195,2899.185,2541.571,2916z M2552.238,2916h-1.936c11.146-58.836,23.072-118.968,36.009-180.759h0.005
		c264.094-1293.672,89.894-1792.654-320.531-1876.498c-436.691-89.212-1140.951,291.052-1869.373,684.36
		C264.583,1614.282,131.968,1685.877,0,1755.207v-2.146c131.673-69.183,263.985-140.612,395.511-211.63
		c728.73-393.475,1433.288-773.895,1870.655-684.547c411.556,84.073,586.389,583.68,322.01,1878.737v0.005
		C2575.264,2797.285,2563.358,2857.288,2552.238,2916z M2568.658,2916h-1.921c15.539-98.763,33.858-202.141,55.197-310.502
		c232.235-1225.133,46.042-1694.739-366.727-1773.037c-427.762-81.136-1098.987,257.498-1800.193,611.259
		C304.023,1519.898,151.647,1596.764,0,1670.302v-2.109c151.36-73.412,303.45-150.137,454.16-226.169
		c701.498-353.908,1373.005-692.687,1801.396-611.427c413.914,78.51,600.741,548.732,368.247,1775.261v0.006
		C2602.491,2714.099,2584.186,2817.351,2568.658,2916z M2592.625,2916h-1.904c15.91-136.144,38.008-282.605,66.838-440.225
		c200.401-1157.815,1.379-1597.733-414.914-1669.832c-418.559-72.496-1056.861,226.408-1729.799,541.534
		C343.115,1426.968,171.18,1507.463,0,1583.313v-2.078c170.908-75.746,342.573-156.112,512.045-235.476
		c673.218-315.255,1311.788-614.291,1730.918-541.696c417.439,72.305,617.108,512.819,416.469,1672.03l-0.004,0.015
		C2630.619,2633.614,2608.535,2779.961,2592.625,2916z M2626.667,2916h-1.899c10.837-169.967,33.248-359.333,68.414-569.958
		c168.552-1092.03-44.473-1501.826-465.89-1566.913c-408.833-63.148-1013.912,197.782-1657.097,475.147
		C382.075,1335.401,190.691,1417.933,0,1494.172v-2.047c190.441-76.157,381.57-158.579,569.445-239.594
		c643.44-277.481,1248.764-538.514,1658.139-475.288c422.561,65.263,636.247,475.652,467.478,1569.084v0.016
		C2659.906,2556.869,2637.5,2746.141,2626.667,2916z M2674.91,2916h-1.901c-1.961-198.631,15.768-430.502,55.797-699.702h0.005
		C2865.397,1188.025,2636.703,808.97,2207.9,751.97c-398.249-52.941-969.209,171.63-1580.52,412.069
		C421.156,1245.147,210.344,1328.043,0,1402.727v-2.021c210.103-74.616,420.687-157.418,626.688-238.443
		c611.54-240.527,1182.719-465.181,1581.462-412.177c429.949,57.156,659.321,436.784,522.541,1466.474v0.015
		C2690.667,2485.712,2672.947,2717.489,2674.91,2916z M2744.563,2916h-1.91c-26.52-219.232-21.157-492.686,21.775-829.413
		c104.373-967.293-142.49-1314.68-581.996-1362.133c-386.234-41.703-921.326,147.977-1497.631,352.262
		c-224.14,79.453-454.511,161.1-684.803,232.227v-1.99c230.073-71.076,460.237-152.647,684.173-232.028
		c576.514-204.364,1111.798-394.11,1498.464-352.361c440.661,47.578,688.206,395.512,583.682,1364.225l-0.004,0.017
		C2723.376,2423.538,2718.03,2696.909,2744.563,2916z M2850.468,2916h-2.025c-71.171-225.705-91.573-538.525-48.389-959.136
		c71.575-910.259-197.319-1224.437-652.651-1260.265c-371.768-29.257-867.878,126.864-1404.468,295.722
		C500.962,1068.467,250.762,1147.181,0,1212.683v-1.969c250.563-65.465,500.576-144.12,742.368-220.21
		c536.774-168.917,1033.054-325.089,1405.186-295.807c456.483,35.922,726.086,350.621,654.395,1262.317l-0.006,0.02
		C2758.745,2377.793,2779.204,2690.523,2850.468,2916z M3034.074,2916h-2.562c-159.476-200.651-235.561-545.809-195.835-1088.881
		c37.645-859.232-259.783-1137.468-739.349-1158.496c-352.936-15.473-804.567,108.23-1293.92,242.27
		C542.54,982.071,272.032,1056.14,0,1113.857v-1.942c271.862-57.697,542.197-131.718,801.908-202.854
		c489.504-134.077,941.274-257.822,1294.499-242.334c480.725,21.076,778.876,299.795,741.171,1160.502v0.026
		C2797.804,2370.898,2874.176,2715.896,3034.074,2916z M5000,2682.743v2.109c-174,84.354-345.655,163.245-511.597,231.148h-5.04
		C4650.873,2847.608,4824.234,2767.972,5000,2682.743z M5000,2448.196v2.087c-530.469,247.646-1036.158,444.84-1421.714,430.378
		c-452.235-16.96-739.156-324.828-706.979-1183.248c1.368-818.442-336.648-1055.131-855.81-1056.005
		c-325.559-0.551-722.394,91.562-1151.453,191.153C586.025,897.094,294.48,964.751,0,1012.395v-1.925
		c294.324-47.635,585.733-115.263,863.624-179.763c429.152-99.614,826.078-191.747,1151.873-191.201
		c520.317,0.882,859.088,237.997,857.703,1057.932v0.037c-32.119,857.015,254.064,1164.371,705.153,1181.29
		C3963.717,2893.216,4469.463,2695.913,5000,2448.196z M5000,2213.159v2.078c-492.403,220.43-960.697,398-1328.992,400.39
		c-456.228,2.963-758.976-262.648-764.078-1047.891c-40.174-798.511-445.874-979.281-1038.083-949.466
		c-278.28,14.008-597.761,74.495-939.843,139.258C632.311,813.699,318.61,873.055,0,908.144v-1.913
		c318.48-35.088,632.072-94.424,928.655-150.574c342.147-64.772,661.688-125.27,940.099-139.283
		c593.344-29.872,999.824,151.236,1040.077,951.273v0.037c5.08,783.858,307.073,1049,762.171,1046.048
		C4039.141,2611.342,4507.509,2433.66,5000,2213.159z M5000,1977.605v2.063c-445.91,190.459-869.553,346.611-1215.582,368.087
		c-470.31,29.188-797.218-190.2-841.86-909.717C2824.401,420.483,2023.009,537.12,998.941,686.162
		C682.672,732.193,345.175,781.286,0,801.065v-1.907c345.076-19.784,682.485-68.86,998.669-114.875
		c1025.157-149.206,1827.399-265.96,1945.78,753.548l0.005,0.051c44.537,718.121,370.67,937.094,839.849,907.972
		C4130.244,2324.383,4553.982,2168.137,5000,1977.605z M5000,1741.475v2.052c-382.772,155.052-747.121,285.77-1059.307,327.755
		c-504.571,67.855-872.855-95.952-962.499-762.934c-174.511-863.538-927.917-787.534-1901.817-689.285
		C739.068,653.088,375.318,689.77,0,691.047v-1.901c375.245-1.275,738.938-37.954,1076.19-71.974
		c974.873-98.348,1729.028-174.432,1903.872,690.832l0.011,0.063c89.442,665.571,456.915,829.035,960.365,761.329
		C4252.607,2027.416,4617.083,1896.605,5000,1741.475z M5000,1504.687v2.037c-278.878,106.351-546.805,200.525-791.559,257.493
		c-589.638,137.242-1044.777,58.607-1194.607-585.551c-227.091-711.533-930.8-672.44-1848.462-621.456
		C804.652,577.254,410.879,599.099,0,577.967v-1.911c410.833,21.138,804.578-0.704,1165.269-20.741
		c918.514-51.03,1622.879-90.165,1850.392,622.841l0.026,0.068c149.49,642.71,603.766,721.126,1192.322,584.138
		C4452.857,1705.375,4720.945,1611.116,5000,1504.687z M5000,1267.145v2.019c-899.8,320.121-1672.309,524.528-1950.475-220.059
		c-274.049-561.86-924.532-555.329-1776.645-546.779C884.884,506.217,455.098,510.498,0,461.789v-1.916
		c455.087,48.729,884.875,44.448,1272.863,40.553c852.802-8.558,1503.801-15.087,1778.375,547.85l0.009,0.016l0.026,0.068
		C3328.855,1791.546,4100.825,1587.072,5000,1267.145z M5000,1028.773v1.995c-848.818,278.526-1571.539,467.767-1914.779-111.293
		c-311.91-414.786-902.064-435.246-1673.2-461.976C990.193,442.881,514.227,426.356,0,342.424v-1.925
		c514.241,83.958,990.241,100.481,1412.084,115.105c771.677,26.747,1362.237,47.218,1674.684,462.774l0.042,0.046l0.02,0.037
		C3429.397,1496.458,4151.687,1307.149,5000,1028.773z M5000,789.435v1.984c-797.671,237.87-1471.842,413.702-1878.998-1.516
		c-332.661-271.626-847.757-310.766-1510.288-361.11C1143.142,393.267,602.154,352.143,0,219.817v-1.953
		c602.205,132.372,1143.252,173.502,1610.854,209.034c662.885,50.369,1178.253,89.526,1511.381,361.558l0.048,0.037l0.031,0.037
		C3528.777,1203.106,4202.658,1027.217,5000,789.435z M5000,548.982v1.968c-746.383,198.355-1373.482,362.807-1843.131,109.362
		c-314.314-135.82-719.202-178.795-1216.972-231.626C1402.51,371.65,756.877,303.108,0,93.884v-1.973
		C756.965,301.2,1402.672,369.755,1940.095,426.795c497.946,52.847,902.975,95.837,1217.545,231.776l0.074,0.037
		C3626.81,911.795,4253.768,747.295,5000,548.982z M456.321,0h5.908c1853.818,640.981,2792.557,437.429,3930.396,190.569
		C4587.388,148.315,4787.985,104.8,5000,64.034v1.942c-211.868,40.746-412.336,84.23-606.969,126.458
		C3253.788,439.589,2314.143,643.397,456.321,0z M108.417,0h6.237c1065.149,341.348,1874.069,413.645,2517.869,471.107
		c202.16,18.039,388.051,34.636,560.49,57.648h0.037c485.937,86.296,1015.115-37.063,1635.134-181.602
		c56.506-13.171,113.771-26.517,171.815-39.901v1.953c-57.899,13.347-115.02,26.664-171.382,39.802
		c-620.223,144.587-1149.577,267.987-1635.894,181.624c-172.414-23.009-358.259-39.594-560.367-57.633
		C1987.318,415.427,1176.539,342.966,108.417,0z M0,1996.061c70.675-45.098,141.584-90.619,212.503-136.155
		c806.749-517.975,1614.224-1036.418,2078.249-925.255c389.483,93.301,536.851,629.769,238.626,1981.349h-1.936
		c298.072-1350.53,151.314-1886.449-237.128-1979.507c-463.24-110.969-1270.374,407.255-2076.786,925.017
		C142.266,1907.264,71.013,1953.004,0,1998.321V1996.061z"/>
</g>
</svg>
